<svg width="100" height="100" xmlns="http://www.w3.org/2000/svg">
 <!-- Created with Method Draw - http://github.com/duopixel/Method-Draw/ -->

 <g>
  <title>background</title>
  <rect fill="none" id="canvas_background" height="102" width="102" y="-1" x="-1"/>
  <g display="none" overflow="visible" y="0" x="0" height="100%" width="100%" id="canvasGrid">
   <rect fill="url(#gridpattern)" stroke-width="0" y="0" x="0" height="100%" width="100%"/>
  </g>
 </g>
 <g>
  <title>Layer 1</title>
  <line stroke="#000" stroke-linecap="null" stroke-linejoin="null" id="svg_2" y2="98" x2="98" y1="2" x1="2" fill-opacity="null" stroke-opacity="null" stroke-width="1.5" fill="none"/>
  <line stroke-linecap="null" stroke-linejoin="null" id="svg_3" y2="1.6211" x2="98.12499" y1="1.3711" x1="0.875" fill-opacity="null" stroke-opacity="null" stroke-width="1.5" stroke="#000" fill="none"/>
  <line stroke-linecap="null" stroke-linejoin="null" id="svg_4" y2="98.12109" x2="1.625" y1="1" x1="1.625" fill-opacity="null" stroke-opacity="null" stroke-width="1.5" stroke="#000" fill="none"/>
  <line stroke-linecap="null" stroke-linejoin="null" id="svg_5" y2="98" x2="98" y1="1" x1="98" fill-opacity="null" stroke-opacity="null" stroke-width="1.5" stroke="#000" fill="none"/>
  <line stroke-linecap="null" stroke-linejoin="null" id="svg_6" y2="98" x2="98.12499" y1="98" x1="1" fill-opacity="null" stroke-opacity="null" stroke-width="1.5" stroke="#000" fill="none"/>
  <line transform="rotate(-90 50.00000000000001,50) " stroke="#000" stroke-linecap="null" stroke-linejoin="null" id="svg_7" y2="98" x2="98" y1="2" x1="2" fill-opacity="null" stroke-opacity="null" stroke-width="1.5" fill="none"/>
  <line stroke-linecap="null" stroke-linejoin="null" id="svg_8" y2="98" x2="50" y1="1" x1="50" fill-opacity="null" stroke-opacity="null" stroke-width="1.5" stroke="#000" fill="none"/>
  <path id="svg_9" d="m48.71127,11.75c-20.64043,0.00862 -37.36762,16.28697 -37.37647,36.37643c0,20.08946 16.73309,36.36782 37.37647,36.37356c20.64043,-0.00574 37.36762,-16.2841 37.37352,-36.37069c-0.00295,-20.09233 -16.73014,-36.3793 -37.37352,-36.3793zm28.51708,36.37643c-0.00885,5.58025 -1.72053,10.76416 -4.63037,15.11807l-39.42163,-38.35809c4.47101,-2.83751 9.79786,-4.50613 15.53787,-4.51762c15.7474,0.03159 28.48757,12.43278 28.51413,27.75764zm-57.04007,0c0.0118,-5.58025 1.72348,-10.7699 4.64218,-15.12382l39.41277,38.36097c-4.47396,2.83177 -9.79786,4.49751 -15.53492,4.50613c-15.74445,-0.01436 -28.48757,-12.41842 -28.52003,-27.74328z" fill-opacity="null" stroke-opacity="null" stroke-width="1.5" stroke="#000" fill="none"/>
  <path id="svg_10" d="m134.28061,44.91018c-0.03497,0.00001 -0.06331,0.02835 -0.06332,0.06333c0,0.03497 0.02835,0.06331 0.06332,0.06332c0.03497,-0.00001 0.06331,-0.02835 0.06332,-0.06332c0,-0.03498 -0.02834,-0.06333 -0.06332,-0.06333zm0.04831,0.06333c-0.00001,0.00971 -0.00291,0.01874 -0.00784,0.02632l-0.06679,-0.06678c0.00757,-0.00494 0.0166,-0.00784 0.02632,-0.00786c0.02668,0.00005 0.04826,0.02164 0.04831,0.04832zm-0.09664,0c0.00002,-0.00971 0.00292,-0.01875 0.00786,-0.02633l0.06677,0.06678c-0.00758,0.00493 -0.0166,0.00783 -0.02632,0.00784c-0.02667,-0.00002 -0.04826,-0.02162 -0.04832,-0.0483z" fill-opacity="null" stroke-opacity="null" stroke-width="1.5" stroke="#000" fill="none"/>
 </g>
</svg>