<?xml version="1.0" encoding="UTF-8" standalone="no"?><!-- Generator: Gravit.io --><svg xmlns="http://www.w3.org/2000/svg" xmlns:xlink="http://www.w3.org/1999/xlink" style="isolation:isolate" viewBox="0 0 60 60" width="60pt" height="60pt"><defs><clipPath id="_clipPath_VQgPqH31vOYzuXupEmbwyZc9mnIV9GkF"><rect width="60" height="60"/></clipPath></defs><g clip-path="url(#_clipPath_VQgPqH31vOYzuXupEmbwyZc9mnIV9GkF)"><rect width="60" height="60" style="fill:rgb(0,0,0)" fill-opacity="0"/><mask id="_mask_3D8nlRTnLRkc3TmvOaW2gnGdsFS7NKdz"><path d=" M 10 0 L 50 0 C 55.519 0 60 4.481 60 10 L 60 50 C 60 55.519 55.519 60 50 60 L 10 60 C 4.481 60 0 55.519 0 50 L 0 10 C 0 4.481 4.481 0 10 0 Z  M 24.537 32.845 L 35.486 32.845 L 31.551 21.736 L 31.551 21.736 Q 30.787 19.627 29.977 16.561 L 29.977 16.561 L 29.977 16.561 Q 29.468 18.916 28.519 21.736 L 28.519 21.736 L 24.537 32.845 L 24.537 32.845 L 24.537 32.845 Z  M 45 48 L 40.926 48 L 36.713 36.597 L 23.148 36.597 L 18.981 48 L 15 48 L 28.38 12 L 31.69 12 L 45 48 L 45 48 L 45 48 Z " fill-rule="evenodd" fill="white" stroke="none"/></mask><path d=" M 10 0 L 50 0 C 55.519 0 60 4.481 60 10 L 60 50 C 60 55.519 55.519 60 50 60 L 10 60 C 4.481 60 0 55.519 0 50 L 0 10 C 0 4.481 4.481 0 10 0 Z  M 24.537 32.845 L 35.486 32.845 L 31.551 21.736 L 31.551 21.736 Q 30.787 19.627 29.977 16.561 L 29.977 16.561 L 29.977 16.561 Q 29.468 18.916 28.519 21.736 L 28.519 21.736 L 24.537 32.845 L 24.537 32.845 L 24.537 32.845 Z  M 45 48 L 40.926 48 L 36.713 36.597 L 23.148 36.597 L 18.981 48 L 15 48 L 28.38 12 L 31.69 12 L 45 48 L 45 48 L 45 48 Z " fill-rule="evenodd" fill="rgb(0,0,0)"/><path d=" M 10 0 L 50 0 C 55.519 0 60 4.481 60 10 L 60 50 C 60 55.519 55.519 60 50 60 L 10 60 C 4.481 60 0 55.519 0 50 L 0 10 C 0 4.481 4.481 0 10 0 Z  M 24.537 32.845 L 35.486 32.845 L 31.551 21.736 L 31.551 21.736 Q 30.787 19.627 29.977 16.561 L 29.977 16.561 L 29.977 16.561 Q 29.468 18.916 28.519 21.736 L 28.519 21.736 L 24.537 32.845 L 24.537 32.845 L 24.537 32.845 Z  M 45 48 L 40.926 48 L 36.713 36.597 L 23.148 36.597 L 18.981 48 L 15 48 L 28.38 12 L 31.69 12 L 45 48 L 45 48 L 45 48 Z " fill-rule="evenodd" fill="rgb(0,0,0)" mask="url(#_mask_3D8nlRTnLRkc3TmvOaW2gnGdsFS7NKdz)" vector-effect="non-scaling-stroke" stroke-width="2" stroke="rgb(0,0,0)" stroke-linejoin="miter" stroke-linecap="square" stroke-miterlimit="3"/></g></svg>