<?xml version="1.0" encoding="UTF-8" standalone="no"?><!-- Generator: Gravit.io --><svg xmlns="http://www.w3.org/2000/svg" xmlns:xlink="http://www.w3.org/1999/xlink" style="isolation:isolate" viewBox="0 0 60 60" width="60pt" height="60pt"><defs><clipPath id="_clipPath_nmtYyDfZOTXzW1nRWericfPG9sz5TXBT"><rect width="60" height="60"/></clipPath></defs><g clip-path="url(#_clipPath_nmtYyDfZOTXzW1nRWericfPG9sz5TXBT)"><clipPath id="_clipPath_DqTvdkv5irw33DKsktzPXeOXwXXuFLnL"><rect x="0" y="0" width="60" height="60" transform="matrix(1,0,0,1,0,0)" fill="rgb(255,255,255)"/></clipPath><g clip-path="url(#_clipPath_DqTvdkv5irw33DKsktzPXeOXwXXuFLnL)"><g><rect x="0" y="0" width="60" height="60" transform="matrix(1,0,0,1,0,0)" fill="none"/><mask id="_mask_pcfZ0X54Dbypas42RlLmqEYdNAqCgaKR" x="-200%" y="-200%" width="400%" height="400%"><rect x="-200%" y="-200%" width="400%" height="400%" style="fill:white;"/><path d=" M 13.333 5 L 46.667 5 C 51.266 5 55 8.734 55 13.333 L 55 46.667 C 55 51.266 51.266 55 46.667 55 L 13.333 55 C 8.734 55 5 51.266 5 46.667 L 5 13.333 C 5 8.734 8.734 5 13.333 5 Z " fill="black" stroke="none"/></mask><path d=" M 13.333 5 L 46.667 5 C 51.266 5 55 8.734 55 13.333 L 55 46.667 C 55 51.266 51.266 55 46.667 55 L 13.333 55 C 8.734 55 5 51.266 5 46.667 L 5 13.333 C 5 8.734 8.734 5 13.333 5 Z " fill="none"/><path d=" M 13.333 5 L 46.667 5 C 51.266 5 55 8.734 55 13.333 L 55 46.667 C 55 51.266 51.266 55 46.667 55 L 13.333 55 C 8.734 55 5 51.266 5 46.667 L 5 13.333 C 5 8.734 8.734 5 13.333 5 Z " fill="none" mask="url(#_mask_pcfZ0X54Dbypas42RlLmqEYdNAqCgaKR)" vector-effect="non-scaling-stroke" stroke-width="4" stroke="rgb(0,0,0)" stroke-linejoin="miter" stroke-linecap="square" stroke-miterlimit="2"/><path d=" M 45 44 L 39.372 44 L 36.137 35.15 L 23.752 35.15 L 20.583 44 L 15 44 L 27.12 12 L 32.88 12 L 45 44 Z  M 25.303 30.659 L 34.742 30.659 L 31.706 21.984 L 31.706 21.984 Q 31.374 21.112 30.787 19.237 L 30.787 19.237 L 30.787 19.237 Q 30.199 17.362 29.978 16.49 L 29.978 16.49 L 29.978 16.49 Q 29.38 19.172 28.227 22.354 L 28.227 22.354 L 25.303 30.659 Z " fill="rgb(0,0,0)"/></g></g></g></svg>