<?xml version="1.0" encoding="UTF-8" standalone="no"?><!-- Generator: Gravit.io --><svg xmlns="http://www.w3.org/2000/svg" xmlns:xlink="http://www.w3.org/1999/xlink" style="isolation:isolate" viewBox="0 0 60 60" width="60pt" height="60pt"><defs><clipPath id="_clipPath_ElhWHrhBQL4XvLFRVhaaP7pG2wAMhmwh"><rect width="60" height="60"/></clipPath></defs><g clip-path="url(#_clipPath_ElhWHrhBQL4XvLFRVhaaP7pG2wAMhmwh)"><rect width="60" height="60" style="fill:rgb(49,35,35)" fill-opacity="0"/><path d=" M 50 7 L 50 7 Q 49.503 11.615 49.503 15.32 L 49.503 15.32 L 49.503 15.32 Q 49.503 18.57 49.716 20.65 L 49.716 20.65 L 48.082 20.65 L 48.082 20.65 Q 47.513 15.645 46.661 13.208 L 46.661 13.208 L 46.661 13.208 Q 45.808 10.77 43.677 9.633 L 43.677 9.633 L 43.677 9.633 Q 41.545 8.495 37.14 8.495 L 37.14 8.495 L 33.304 8.495 L 33.304 45.48 L 33.304 45.48 Q 33.304 48.21 33.872 49.445 L 33.872 49.445 L 33.872 49.445 Q 34.44 50.68 35.861 51.135 L 35.861 51.135 L 35.861 51.135 Q 37.282 51.59 40.48 51.72 L 40.48 51.72 L 40.48 53.02 L 40.48 53.02 Q 36.785 52.825 30.036 52.825 L 30.036 52.825 L 30.036 52.825 Q 22.931 52.825 19.52 53.02 L 19.52 53.02 L 19.52 51.72 L 19.52 51.72 Q 22.718 51.59 24.139 51.135 L 24.139 51.135 L 24.139 51.135 Q 25.56 50.68 26.128 49.445 L 26.128 49.445 L 26.128 49.445 Q 26.696 48.21 26.696 45.48 L 26.696 45.48 L 26.696 8.495 L 22.86 8.495 L 22.86 8.495 Q 18.455 8.495 16.323 9.633 L 16.323 9.633 L 16.323 9.633 Q 14.192 10.77 13.339 13.208 L 13.339 13.208 L 13.339 13.208 Q 12.487 15.645 11.918 20.65 L 11.918 20.65 L 10.284 20.65 L 10.284 20.65 Q 10.497 18.57 10.497 15.32 L 10.497 15.32 L 10.497 15.32 Q 10.497 11.615 10 7 L 10 7 L 10 7 Q 15.897 7.195 30.036 7.195 L 30.036 7.195 L 30.036 7.195 Q 44.103 7.195 50 7 L 50 7 Z " fill="rgb(0,0,0)"/></g></svg>